<svg width="401.07" height="439.47" xmlns="http://www.w3.org/2000/svg">
 <title/>

 <g>
  <title>background</title>
  <rect fill="none" id="canvas_background" height="402" width="582" y="-1" x="-1"/>
 </g>
 <g>
  <title>Layer 1</title>
  <path fill="#06d71e" id="svg_1" d="m72.5,281.31a5.47,5.47 0 1 0 4,-10.17a20.75,20.75 0 0 1 -12.63,-22.89c4.73,-27 7.66,-57.94 8.7,-91.87a5.46,5.46 0 1 0 -10.92,-0.33c-1,33.41 -3.91,63.8 -8.54,90.31a31.73,31.73 0 0 0 19.39,34.95z"/>
  <path fill="#06d71e" id="svg_2" d="m176.23,271a5.44,5.44 0 0 0 -5.78,-5.13c-34.73,2.08 -51.28,13.11 -52,13.58a5.47,5.47 0 0 0 6.13,9.05c0.14,-0.1 15.09,-9.83 46.49,-11.71a5.46,5.46 0 0 0 5.16,-5.79z"/>
  <path fill="#06d71e" id="svg_3" d="m146,300.57a5.53,5.53 0 0 0 1.86,-0.33c0.17,-0.06 17.4,-6.17 40.76,-5.09a138.47,138.47 0 0 1 27.61,5.16a5.47,5.47 0 0 0 3.29,-10.43a148.09,148.09 0 0 0 -30.15,-5.64l-0.14,0c-25.57,-1.21 -44.3,5.43 -45.08,5.72a5.47,5.47 0 0 0 1.85,10.61z"/>
  <path fill="#06d71e" id="svg_4" d="m242.27,289.41a5.46,5.46 0 0 0 3.08,-10c-0.68,-0.47 -17.24,-11.5 -52,-13.58a5.47,5.47 0 0 0 -0.65,10.92c31.32,1.87 46.27,11.56 46.5,11.71a5.46,5.46 0 0 0 3.07,0.95z"/>
  <path fill="#06d71e" id="svg_5" d="m190.56,243a5.47,5.47 0 0 0 5.47,5.47l34.2,0a5.47,5.47 0 0 0 5.47,-5.47l0,-4.74a32.3,32.3 0 0 0 -6.28,-19.07l-27.1,-36.71l0,-53.8c9.21,5.21 18.57,7.84 27.91,7.84a70.47,70.47 0 0 0 19.16,-2.44a5.47,5.47 0 1 0 -3,-10.52a59.42,59.42 0 0 1 -16.18,2c-9.18,0 -18.57,-3.31 -27.91,-9.83l0,-6.83a5.47,5.47 0 1 0 -10.94,0l0,75.3a5.52,5.52 0 0 0 1.07,3.25l28.17,38.15a21.33,21.33 0 0 1 4.13,11.85l-28.73,0a5.47,5.47 0 0 0 -5.44,5.55z"/>
  <path fill="#06d71e" id="svg_6" d="m137.81,16a5.68,5.68 0 0 0 1.41,-0.18c1.43,-0.38 2.85,-0.73 4.24,-1.06a5.46,5.46 0 1 0 -2.46,-10.65c-1.49,0.35 -3,0.72 -4.56,1.13a5.47,5.47 0 0 0 1.37,10.76z"/>
  <path fill="#06d71e" stroke="#ffffff" id="svg_7" d="m263.529987,19.91c-39.2,-23.08 -79.71,-19.82 -81.41,-19.67a5.47,5.47 0 0 0 0.95,10.89c0.39,0 38.83,-3.05 74.92,18.2a32.38,32.38 0 0 1 15.77,27.85l0,28.18a4.33,4.33 0 0 1 -5.86,4c-2.35,-0.88 -8.9,-3.06 -15,-5.09l-0.49,-0.16a5.46,5.46 0 0 0 -3.45,10.37l0.5,0.17c2.81,0.93 8.54,2.83 12.13,4.07c-2.71,124.8 5.49,199.87 7.06,212.83c-7.52,11.46 -18.72,21.42 -33.33,29.65a5.46,5.46 0 1 0 5.36,9.52c16.92,-9.52 29.8,-21.3 38.28,-35a5.45,5.45 0 0 0 0.77,-3.61c-0.1,-0.75 -10.11,-76.61 -7.24,-211.84a15.22,15.22 0 0 0 12.19,-14.91l0,-8c0.36,0.28 0.74,0.55 1.09,0.84a17.51,17.51 0 0 1 6.48,14.26c-1.12,26.1 -2.53,93.52 8.37,155.83a20.75,20.75 0 0 1 -12.63,22.89a5.47,5.47 0 0 0 2,10.55a5.42,5.42 0 0 0 2,-0.38a31.74,31.74 0 0 0 19.39,-34.95c-10.7,-61.29 -9.3,-127.78 -8.2,-153.52a28.49,28.49 0 0 0 -10.5,-23.21c-2.38,-1.93 -5,-3.82 -7.67,-5.63c-0.1,-0.07 -0.21,-0.11 -0.31,-0.17l0,-6.69a43.34,43.34 0 0 0 -21.17,-37.27z"/>
  <path fill="#06d71e" id="svg_8" d="m232.54,90.25a5.36,5.36 0 0 0 1.19,0.13a5.47,5.47 0 0 0 1.18,-10.8l-1.74,-0.38a5.46,5.46 0 1 0 -2.31,10.68l1.68,0.37z"/>
  <path fill="#06d71e" id="svg_9" d="m106.52,29.33a5.46,5.46 0 0 0 -5.52,-9.42a43.33,43.33 0 0 0 -21.17,37.27l0,6.7c-0.11,0.06 -0.22,0.1 -0.32,0.16c-2.72,1.81 -5.3,3.7 -7.67,5.63a28.49,28.49 0 0 0 -10.5,23.21c0.37,8.88 0.81,23.1 0.72,40.45a5.47,5.47 0 0 0 5.44,5.5l0,0a5.46,5.46 0 0 0 5.5,-5.44c0.09,-17.57 -0.35,-32 -0.73,-41a17.51,17.51 0 0 1 6.48,-14.26c0.34,-0.29 0.73,-0.56 1.09,-0.84l0,8a15.2,15.2 0 0 0 12.16,15c2.87,135.23 -7.14,211.09 -7.24,211.84a5.45,5.45 0 0 0 0.77,3.61c11.17,18.05 29.64,32.55 54.92,43.1a107.52,107.52 0 0 0 77.12,2.22a5.47,5.47 0 0 0 -3.57,-10.32a96.5,96.5 0 0 1 -69.28,-2c-22.36,-9.33 -38.77,-21.82 -48.81,-37.16c1.43,-11.86 8.42,-75.76 7.52,-182.19c6.3,3.72 16,7.12 30.21,7.12a52.55,52.55 0 0 0 16.73,-2.82a5.46,5.46 0 1 0 -3.48,-10.36a41.72,41.72 0 0 1 -13.25,2.25c-20.12,0 -28.16,-7.52 -30.37,-10.17q-0.12,-8.19 -0.31,-16.69a253.52,253.52 0 0 1 58.6,-13.66l0,97.36l-27.1,36.71a32.3,32.3 0 0 0 -6.28,19.07l0,4.8a5.47,5.47 0 0 0 5.46,5.47l37.18,0a5.47,5.47 0 0 0 0,-10.94l-31.7,0a21.33,21.33 0 0 1 4.13,-11.85l28.17,-38.15a5.52,5.52 0 0 0 1.07,-3.25l0,-100c3.12,-0.16 6.28,-0.25 9.47,-0.25s6.27,0.11 9.46,0.27l0,5.3a5.47,5.47 0 0 0 10.94,0l0,-4.51c3.31,0.34 6.64,0.73 10,1.24a5.47,5.47 0 0 0 1.62,-10.82a217.11,217.11 0 0 0 -32,-2.47c-36.18,0 -69,10.25 -85.31,16.36a4.31,4.31 0 0 1 -5.85,-4l0,-28.22a32.37,32.37 0 0 1 15.7,-27.85z"/>
  <path fill="#06d71e" id="svg_10" d="m358.75,428.54l-28.07,0c0,-0.34 -0.05,-0.66 -0.08,-1a80.05,80.05 0 0 0 -25.22,-50.94c-8.08,-7.56 -17.57,-15.93 -28.23,-24.89a5.47,5.47 0 0 0 -7,8.37c10.51,8.83 19.85,17.07 27.79,24.5a69.19,69.19 0 0 1 21.81,44l-132.37,0l0,-8.73a5.47,5.47 0 1 0 -10.93,0l0,8.73l-132.33,0a69.14,69.14 0 0 1 21.81,-44c8.64,-8.09 18.93,-17.12 30.56,-26.82a5.47,5.47 0 1 0 -7,-8.4c-11.79,9.84 -22.24,19 -31,27.24a80.15,80.15 0 0 0 -25.22,50.94c0,0.35 0,0.67 -0.08,1l-27.72,0a5.47,5.47 0 1 0 0,10.93l353.28,0a5.47,5.47 0 1 0 0,-10.93z"/>
  <path fill="#06d71e" id="svg_11" d="m395.61,428.54l-6.56,0a5.47,5.47 0 0 0 0,10.93l6.56,0a5.47,5.47 0 0 0 0,-10.93z"/>
 </g>
</svg>